<svg width="1392" height="96" viewBox="0 0 1392 96" fill="none" xmlns="http://www.w3.org/2000/svg">
<g clip-path="url(#clip0_56_468)">
<path d="M1367.86 20.7431L1363.45 16.1413L1375.97 3.08948H1384.8L1367.86 20.7431ZM1389.92 48.1919L1352.26 87.4446L1351.45 88.2746L1348.47 91.3053L1307.11 48.1919L1348.53 5.02152L1349.57 6.11393V6.13447L1389.92 48.1919ZM1383.96 92.4164H1375.13L1363.45 80.2427L1367.86 75.6408L1383.96 92.4164ZM1351.77 92.4164L1361.31 82.4729L1370.85 92.4164H1351.77ZM1330.48 92.4164L1297.63 58.1679L1305.01 50.4742L1345.24 92.4164H1330.48ZM1316.14 92.4164L1290.45 65.6447L1295.48 60.4061L1326.19 92.4164H1316.14ZM1301.24 92.4164L1283 73.4104L1288.31 67.8829L1311.84 92.4164H1301.24ZM1296.94 92.4164H1288.13L1276.45 80.2427L1280.86 75.6487L1296.94 92.4164ZM1264.77 92.4164L1274.3 82.481L1283.83 92.4164H1264.77ZM1261.46 91.2975L1220.11 48.1919L1261.52 5.02953L1262.55 6.11393V6.13447L1302.9 48.1919L1265.24 87.4446L1264.43 88.2746L1261.46 91.2975ZM1243.48 92.4164L1210.63 58.1679L1218.01 50.4742L1258.24 92.4164H1243.48ZM1229.14 92.4164L1203.45 65.6447L1208.48 60.4061L1239.19 92.4164H1229.14ZM1214.24 92.4164L1196 73.4104L1201.31 67.8829L1224.84 92.4164H1214.24ZM1209.94 92.4164H1201.13L1189.45 80.2427L1193.86 75.6487L1209.94 92.4164ZM1177.77 92.4164L1187.3 82.481L1196.83 92.4164H1177.77ZM1175.19 90.5686V90.5745L1174.47 91.3053L1133.11 48.1919L1174.53 5.02152L1175.55 6.09774V6.13447L1215.9 48.1919L1178.24 87.4446L1175.19 90.5686ZM1156.48 92.4164L1123.63 58.1679L1131.01 50.4742L1171.24 92.4164H1156.48ZM1142.14 92.4164L1116.45 65.6447L1121.48 60.4061L1152.19 92.4164H1142.14ZM1127.24 92.4164L1109.01 73.4104L1114.31 67.8829L1137.84 92.4164H1127.24ZM1122.94 92.4164H1114.13L1102.45 80.2427L1106.86 75.6487L1122.94 92.4164ZM1090.77 92.4164L1100.3 82.481L1109.83 92.4164H1090.77ZM1087.46 91.2975L1046.11 48.1919L1087.52 5.02953L1088.55 6.11393V6.13447L1128.9 48.1919L1091.24 87.4446L1090.43 88.2746L1087.46 91.2975ZM1069.48 92.4164L1036.63 58.1679L1044.01 50.4742L1084.24 92.4164H1069.48ZM1055.14 92.4164L1029.45 65.6447L1034.48 60.4061L1065.19 92.4164H1055.14ZM1040.24 92.4164L1022 73.4104L1027.31 67.8829L1050.84 92.4164H1040.24ZM1035.94 92.4164H1027.13L1015.45 80.2427L1019.86 75.6487L1035.94 92.4164ZM1003.77 92.4164L1013.3 82.481L1022.83 92.4164H1003.77ZM1001.19 90.5686V90.5745L1000.47 91.3053L959.113 48.1919L1000.53 5.02152L1001.55 6.09774V6.13447L1041.9 48.1919L1004.24 87.4446L1001.19 90.5686ZM982.481 92.4164L949.627 58.1679L957.007 50.4742L997.239 92.4164H982.481ZM968.136 92.4164L942.454 65.6447L947.48 60.4061L978.186 92.4164H968.136ZM953.236 92.4164L935.005 73.4104L940.306 67.8829L963.841 92.4164H953.236ZM948.943 92.4164H940.129L928.451 80.2427L932.857 75.6487L948.943 92.4164ZM916.773 92.4164L926.304 82.481L935.834 92.4164H916.773ZM913.464 91.2975L872.114 48.1919L913.519 5.02953L914.553 6.11393V6.13447L954.9 48.1919L917.243 87.4446L916.432 88.2746L913.464 91.2975ZM895.48 92.4164L862.626 58.1679L870.007 50.4742L910.238 92.4164H895.48ZM881.135 92.4164L855.454 65.6447L860.479 60.4061L891.187 92.4164H881.135ZM866.237 92.4164L848.004 73.4104L853.307 67.8829L876.842 92.4164H866.237ZM861.942 92.4164H853.13L841.452 80.2427L845.858 75.6487L861.942 92.4164ZM829.772 92.4164L839.303 82.481L848.835 92.4164H829.772ZM827.188 90.5686V90.5745L826.471 91.3053L785.115 48.1919L826.527 5.02152L827.552 6.09774V6.13447L867.901 48.1919L830.244 87.4446L827.188 90.5686ZM808.481 92.4164L775.627 58.1679L783.006 50.4742L823.238 92.4164H808.481ZM794.136 92.4164L768.454 65.6447L773.48 60.4061L804.186 92.4164H794.136ZM779.236 92.4164L761.005 73.4104L766.308 67.8829L789.841 92.4164H779.236ZM774.943 92.4164H766.129L754.451 80.2427L758.857 75.6487L774.943 92.4164ZM742.773 92.4164L752.304 82.481L761.834 92.4164H742.773ZM739.456 91.3053L698.098 48.1919L739.51 5.02152L740.553 6.11393V6.13447L780.9 48.1919L743.243 87.4446L742.432 88.2746L739.456 91.3053ZM743.49 3.08948H762.676L752.304 13.903L742.71 3.90178L743.49 3.08948ZM775.784 3.08948L758.857 20.7351L754.451 16.1413L766.971 3.08948H775.784ZM790.684 3.08948L766.308 28.5009L761.005 22.9736L780.078 3.08948H790.684ZM805.029 3.08948L773.48 35.9776L768.454 30.7393L794.979 3.08948H805.029ZM824.081 3.08948L783.006 45.9096L775.627 38.2161L809.323 3.08948H824.081ZM830.489 3.08948H849.677L839.303 13.903L829.709 3.90178L830.489 3.08948ZM862.784 3.08948L845.858 20.7351L841.452 16.1413L853.972 3.08948H862.784ZM877.683 3.08948L853.307 28.5009L848.004 22.9736L867.079 3.08948H877.683ZM892.028 3.08948L860.479 35.9776L855.454 30.7393L881.978 3.08948H892.028ZM911.08 3.08948L870.007 45.9096L862.626 38.2161L896.323 3.08948H911.08ZM917.488 3.08948H936.676L926.304 13.903L916.71 3.90178L917.488 3.08948ZM949.784 3.08948L932.857 20.7351L928.451 16.1413L940.971 3.08948H949.784ZM964.684 3.08948L940.306 28.5009L935.005 22.9736L954.078 3.08948H964.684ZM979.029 3.08948L947.48 35.9776L942.454 30.7393L968.979 3.08948H979.029ZM998.081 3.08948L957.007 45.9096L949.627 38.2161L983.324 3.08948H998.081ZM1004.49 3.08948H1023.68L1013.3 13.903L1003.71 3.90178L1004.49 3.08948ZM1036.78 3.08948L1019.86 20.7351L1015.45 16.1413L1027.97 3.08948H1036.78ZM1051.68 3.08948L1027.31 28.5009L1022 22.9736L1041.08 3.08948H1051.68ZM1066.03 3.08948L1034.48 35.9776L1029.45 30.7393L1055.98 3.08948H1066.03ZM1085.08 3.08948L1044.01 45.9096L1036.63 38.2161L1070.32 3.08948H1085.08ZM1091.49 3.08948H1110.68L1100.3 13.903L1090.71 3.90178L1091.49 3.08948ZM1123.78 3.08948L1106.86 20.7351L1102.45 16.1413L1114.97 3.08948H1123.78ZM1138.68 3.08948L1114.31 28.5009L1109.01 22.9736L1128.08 3.08948H1138.68ZM1153.03 3.08948L1121.48 35.9776L1116.45 30.7393L1142.98 3.08948H1153.03ZM1172.08 3.08948L1131.01 45.9096L1123.63 38.2161L1157.32 3.08948H1172.08ZM1178.49 3.08948H1197.68L1187.3 13.903L1177.71 3.90178L1178.49 3.08948ZM1210.78 3.08948L1193.86 20.7351L1189.45 16.1413L1201.97 3.08948H1210.78ZM1225.68 3.08948L1201.31 28.5009L1196 22.9736L1215.08 3.08948H1225.68ZM1240.03 3.08948L1208.48 35.9776L1203.45 30.7393L1229.98 3.08948H1240.03ZM1259.08 3.08948L1218.01 45.9096L1210.63 38.2161L1244.32 3.08948H1259.08ZM1265.49 3.08948H1284.68L1274.3 13.903L1264.71 3.90178L1265.49 3.08948ZM1297.78 3.08948L1280.86 20.7351L1276.45 16.1413L1288.97 3.08948H1297.78ZM1312.68 3.08948L1288.31 28.5009L1283 22.9736L1302.08 3.08948H1312.68ZM1327.03 3.08948L1295.48 35.9776L1290.45 30.7393L1316.98 3.08948H1327.03ZM1346.08 3.08948L1305.01 45.9096L1297.63 38.2161L1331.32 3.08948H1346.08ZM1352.49 3.08948H1371.69L1361.31 13.9108L1351.71 3.90178L1352.49 3.08948ZM1391.98 3.08948V-0.000244141H695.999V3.08948H703.685L695.999 11.1V15.561L707.964 3.08948H718.028L695.999 26.0537V30.5144L722.307 3.08948H737.08L695.999 45.9176V50.4662L736.237 92.4164H721.464L695.999 65.8696V70.3301L717.187 92.4164H707.121L695.999 80.8231V85.2836L702.842 92.4164H695.999V95.5061H740.189V95.5166H775.43V95.5061H827.188V95.5166H862.431V95.5061H914.189V95.5166H949.43V95.5061H1001.19V95.5166H1036.43V95.5061H1088.19V95.5166H1123.43V95.5061H1175.19V95.5166H1210.43V95.5061H1262.19V95.5166H1297.43V95.5061H1349.2V95.5166H1384.43V95.5061H1391.98V92.4164H1388.24L1370 73.4104L1375.31 67.8751L1391.98 85.2434V80.7827L1377.45 65.6447L1382.49 60.3983L1391.98 70.2897V65.8294L1384.63 58.1679L1391.98 50.5066V45.8772L1384.63 38.2161L1391.98 30.5548V26.0939L1382.49 35.9857L1377.45 30.7393L1391.98 15.6013V11.1404L1375.31 28.5089L1370 22.9736L1389.08 3.08948H1391.98ZM656.489 3.08948H675.693L665.312 13.9108L655.709 3.90178L656.489 3.08948ZM688.8 3.08948L671.865 20.7431L667.451 16.1413L679.972 3.08948H688.8ZM693.915 48.1919L656.259 87.4446L655.448 88.2746L652.471 91.3053L611.115 48.1919L652.527 5.02152L653.568 6.11393V6.13447L693.915 48.1919ZM687.957 92.4164H679.129L667.451 80.2427L671.865 75.6408L687.957 92.4164ZM655.772 92.4164L665.312 82.4729L674.85 92.4164H655.772ZM634.481 92.4164L601.627 58.1679L609.006 50.4742L649.238 92.4164H634.481ZM620.136 92.4164L594.454 65.6447L599.48 60.4061L630.186 92.4164H620.136ZM605.236 92.4164L587.005 73.4104L592.308 67.8829L615.841 92.4164H605.236ZM600.943 92.4164H592.128L580.451 80.2427L584.858 75.6487L600.943 92.4164ZM568.773 92.4164L578.304 82.481L587.834 92.4164H568.773ZM565.463 91.2975L524.114 48.1919L565.519 5.02953L566.553 6.11393V6.13447L606.9 48.1919L569.243 87.4446L568.431 88.2746L565.463 91.2975ZM547.48 92.4164L514.628 58.1679L522.007 50.4742L562.237 92.4164H547.48ZM533.137 92.4164L507.455 65.6447L512.479 60.4061L543.187 92.4164H533.137ZM518.236 92.4164L500.004 73.4104L505.307 67.8829L528.842 92.4164H518.236ZM513.942 92.4164H505.129L493.451 80.2427L497.858 75.6487L513.942 92.4164ZM481.772 92.4164L491.303 82.481L500.835 92.4164H481.772ZM479.188 90.5686V90.5745L478.471 91.3053L437.114 48.1919L478.527 5.02152L479.552 6.09774V6.13447L519.901 48.1919L482.244 87.4446L479.188 90.5686ZM460.481 92.4164L427.627 58.1679L435.006 50.4742L475.238 92.4164H460.481ZM446.136 92.4164L420.454 65.6447L425.48 60.4061L456.186 92.4164H446.136ZM431.236 92.4164L413.005 73.4104L418.308 67.8829L441.843 92.4164H431.236ZM426.943 92.4164H418.128L406.451 80.2427L410.858 75.6487L426.943 92.4164ZM394.773 92.4164L404.304 82.481L413.834 92.4164H394.773ZM391.463 91.2975L350.114 48.1919L391.519 5.02953L392.553 6.11393V6.13447L432.9 48.1919L395.244 87.4446L394.431 88.2746L391.463 91.2975ZM373.48 92.4164L340.628 58.1679L348.007 50.4742L388.239 92.4164H373.48ZM359.137 92.4164L333.455 65.6447L338.479 60.4061L369.187 92.4164H359.137ZM344.236 92.4164L326.004 73.4104L331.307 67.8829L354.842 92.4164H344.236ZM339.942 92.4164H331.129L319.451 80.2427L323.858 75.6487L339.942 92.4164ZM307.772 92.4164L317.303 82.481L326.834 92.4164H307.772ZM305.188 90.5686V90.5745L304.471 91.3053L263.114 48.1919L304.527 5.02152L305.554 6.09774V6.13447L345.901 48.1919L308.243 87.4446L305.188 90.5686ZM286.481 92.4164L253.627 58.1679L261.008 50.4742L301.238 92.4164H286.481ZM272.136 92.4164L246.454 65.6447L251.48 60.4061L282.186 92.4164H272.136ZM257.237 92.4164L239.005 73.4104L244.308 67.8829L267.843 92.4164H257.237ZM252.942 92.4164H244.13L232.45 80.2427L236.858 75.6487L252.942 92.4164ZM220.772 92.4164L230.304 82.481L239.835 92.4164H220.772ZM217.465 91.2975L176.114 48.1919L217.519 5.02953L218.553 6.11393V6.13447L258.9 48.1919L221.244 87.4446L220.433 88.2746L217.465 91.2975ZM199.48 92.4164L166.627 58.1679L174.007 50.4742L214.239 92.4164H199.48ZM185.137 92.4164L159.455 65.6447L164.479 60.4061L195.187 92.4164H185.137ZM170.236 92.4164L152.004 73.4104L157.307 67.8829L180.842 92.4164H170.236ZM165.943 92.4164H157.129L145.451 80.2427L149.857 75.6487L165.943 92.4164ZM133.773 92.4164L143.305 82.481L152.834 92.4164H133.773ZM131.19 90.5686V90.5745L130.471 91.3053L89.1143 48.1919L130.527 5.02152L131.554 6.09774V6.13447L171.901 48.1919L134.243 87.4446L131.19 90.5686ZM112.481 92.4164L79.6264 58.1679L87.0078 50.4742L127.238 92.4164H112.481ZM98.1356 92.4164L72.454 65.6447L77.4799 60.4061L108.186 92.4164H98.1356ZM83.2371 92.4164L65.0048 73.4104L70.3075 67.8829L93.8426 92.4164H83.2371ZM78.9423 92.4164H70.1299L58.4503 80.2427L62.8582 75.6487L78.9423 92.4164ZM46.7724 92.4164L56.3038 82.481L65.8352 92.4164H46.7724ZM43.456 91.3053L2.09944 48.1919L43.5118 5.02152L44.5528 6.11393V6.13447L84.8996 48.1919L47.2442 87.4446L46.4329 88.2746L43.456 91.3053ZM47.4896 3.08948H66.6777L56.3038 13.903L46.7097 3.90178L47.4896 3.08948ZM79.7849 3.08948L62.8582 20.7351L58.4503 16.1413L70.9708 3.08948H79.7849ZM94.6834 3.08948L70.3075 28.5009L65.0048 22.9736L84.0797 3.08948H94.6834ZM109.028 3.08948L77.4799 35.9776L72.454 30.7393L98.9782 3.08948H109.028ZM128.081 3.08948L87.0078 45.9096L79.6264 38.2161L113.323 3.08948H128.081ZM134.489 3.08948H153.677L143.305 13.903L133.709 3.90178L134.489 3.08948ZM166.784 3.08948L149.857 20.7351L145.451 16.1413L157.972 3.08948H166.784ZM181.684 3.08948L157.307 28.5009L152.004 22.9736L171.079 3.08948H181.684ZM196.028 3.08948L164.479 35.9776L159.455 30.7393L185.979 3.08948H196.028ZM215.08 3.08948L174.007 45.9096L166.627 38.2161L200.322 3.08948H215.08ZM221.49 3.08948H240.678L230.304 13.903L220.71 3.90178L221.49 3.08948ZM253.785 3.08948L236.858 20.7351L232.45 16.1413L244.971 3.08948H253.785ZM268.684 3.08948L244.308 28.5009L239.005 22.9736L258.08 3.08948H268.684ZM283.028 3.08948L251.48 35.9776L246.454 30.7393L272.978 3.08948H283.028ZM302.081 3.08948L261.008 45.9096L253.627 38.2161L287.323 3.08948H302.081ZM308.489 3.08948H327.677L317.303 13.903L307.711 3.90178L308.489 3.08948ZM340.784 3.08948L323.858 20.7351L319.451 16.1413L331.972 3.08948H340.784ZM355.684 3.08948L331.307 28.5009L326.004 22.9736L345.079 3.08948H355.684ZM370.028 3.08948L338.479 35.9776L333.455 30.7393L359.979 3.08948H370.028ZM389.08 3.08948L348.007 45.9096L340.628 38.2161L374.322 3.08948H389.08ZM395.49 3.08948H414.676L404.304 13.903L394.71 3.90178L395.49 3.08948ZM427.783 3.08948L410.858 20.7351L406.451 16.1413L418.971 3.08948H427.783ZM442.684 3.08948L418.308 28.5009L413.005 22.9736L432.078 3.08948H442.684ZM457.029 3.08948L425.48 35.9776L420.454 30.7393L446.978 3.08948H457.029ZM476.081 3.08948L435.006 45.9096L427.627 38.2161L461.323 3.08948H476.081ZM482.489 3.08948H501.677L491.303 13.903L481.709 3.90178L482.489 3.08948ZM514.784 3.08948L497.858 20.7351L493.451 16.1413L505.972 3.08948H514.784ZM529.685 3.08948L505.307 28.5009L500.004 22.9736L519.079 3.08948H529.685ZM544.028 3.08948L512.479 35.9776L507.455 30.7393L533.979 3.08948H544.028ZM563.08 3.08948L522.007 45.9096L514.628 38.2161L548.323 3.08948H563.08ZM569.49 3.08948H588.676L578.304 13.903L568.71 3.90178L569.49 3.08948ZM601.783 3.08948L584.858 20.7351L580.451 16.1413L592.971 3.08948H601.783ZM616.684 3.08948L592.308 28.5009L587.005 22.9736L606.078 3.08948H616.684ZM631.029 3.08948L599.48 35.9776L594.454 30.7393L620.979 3.08948H631.029ZM650.081 3.08948L609.006 45.9096L601.627 38.2161L635.323 3.08948H650.081ZM695.976 -0.000244141H0V3.08948H7.68422L0 11.1V15.561L11.9633 3.08948H22.0291L0 26.0537V30.5144L26.3082 3.08948H41.0815L0 45.9176V50.4662L40.2388 92.4164H25.4657L0 65.8696V70.3301L21.1866 92.4164H11.1208L0 80.8231V85.2836L6.84166 92.4164H0V95.5061H44.1889V95.5166H79.4315V95.5061H131.19V95.5166H166.431V95.5061H218.189V95.5166H253.432V95.5061H305.188V95.5166H340.431V95.5061H392.189V95.5166H427.432V95.5061H479.188V95.5166H514.431V95.5061H566.189V95.5166H601.43V95.5061H653.204V95.5166H688.431V95.5061H695.976V92.4164H692.237L674.004 73.4104L679.316 67.8751L695.976 85.2434V80.7827L681.455 65.6447L686.488 60.3983L695.976 70.2897V65.8294L688.626 58.1679L695.976 50.5066V45.8772L688.626 38.2161L695.976 30.5548V26.0939L686.488 35.9857L681.455 30.7393L695.976 15.6013V11.1404L679.316 28.5089L674.004 22.9736L693.079 3.08948H695.976V-0.000244141Z" fill="white"/>
</g>
<defs>
<clipPath id="clip0_56_468">
<rect width="1391.99" height="95.5538" fill="white"/>
</clipPath>
</defs>
</svg>
