<svg width="587" height="96" viewBox="0 0 587 96" fill="none" xmlns="http://www.w3.org/2000/svg">
<path d="M535.235 92.641H532.202L572.692 3.35925H575.725L535.235 92.641ZM522.125 92.641L562.616 3.35925H569.008L528.517 92.641H522.125ZM518.44 92.641H515.407L555.898 3.35925H558.931L518.44 92.641ZM505.331 92.641L545.821 3.35925H552.213L511.723 92.641H505.331ZM498.613 92.641L539.103 3.35925H542.136L501.646 92.641H498.613ZM494.928 92.641H471.741L512.231 3.35925H535.418L494.928 92.641ZM465.023 92.641L505.513 3.35925H508.527L468.036 92.641H465.023ZM454.946 92.641L495.436 3.35925H501.809L461.319 92.641H454.946ZM451.242 92.641H448.228L488.718 3.35925H491.732L451.242 92.641ZM438.151 92.641L478.641 3.35925H485.014L444.524 92.641H438.151ZM431.433 92.641L471.923 3.35925H474.937L434.447 92.641H431.433ZM427.729 92.641H404.564L445.055 3.35925H468.219L427.729 92.641ZM397.847 92.641L438.337 3.35925H441.347L400.857 92.641H397.847ZM387.769 92.641L428.26 3.35925H434.629L394.139 92.641H387.769ZM384.062 92.641H381.052L421.542 3.35925H424.552L384.062 92.641ZM370.974 92.641L411.465 3.35925H417.834L377.344 92.641H370.974ZM364.257 92.641L404.747 3.35925H407.758L367.267 92.641H364.257ZM360.549 92.641H337.384L377.875 3.35925H401.04L360.549 92.641ZM330.667 92.641L371.157 3.35925H374.171L333.68 92.641H330.667ZM320.589 92.641L361.08 3.35925H367.453L326.963 92.641H320.589ZM316.886 92.641H313.872L354.363 3.35925H357.376L316.886 92.641ZM303.795 92.641L344.285 3.35925H350.657L310.168 92.641H303.795ZM297.077 92.641L337.568 3.35925H340.581L300.091 92.641H297.077ZM293.374 92.641H270.187L310.677 3.35925H333.862L293.374 92.641ZM263.47 92.641L303.96 3.35925H306.991L266.501 92.641H263.47ZM253.392 92.641L293.882 3.35925H300.274L259.784 92.641H253.392ZM249.706 92.641H246.675L287.165 3.35925H290.196L249.706 92.641ZM236.597 92.641L277.087 3.35925H283.479L242.989 92.641H236.597ZM229.88 92.641L270.37 3.35925H273.401L232.911 92.641H229.88ZM226.194 92.641H203.008L243.498 3.35925H266.684L226.194 92.641ZM196.29 92.641L236.781 3.35925H239.794L199.304 92.641H196.29ZM186.213 92.641L226.703 3.35925H233.077L192.587 92.641H186.213ZM182.509 92.641H179.496L219.986 3.35925H222.999L182.509 92.641ZM169.418 92.641L209.909 3.35925H216.28L175.792 92.641H169.418ZM162.701 92.641L203.191 3.35925H206.204L165.714 92.641H162.701ZM158.997 92.641H135.832L176.322 3.35925H199.486L158.997 92.641ZM129.114 92.641L169.604 3.35925H172.614L132.124 92.641H129.114ZM119.037 92.641L159.527 3.35925H165.897L125.407 92.641H119.037ZM115.329 92.641H112.319L152.809 3.35925H155.819L115.329 92.641ZM102.242 92.641L142.733 3.35925H149.102L108.612 92.641H102.242ZM95.5239 92.641L136.014 3.35925H139.025L98.5343 92.641H95.5239ZM91.8172 92.641H68.6526L109.143 3.35925H132.307L91.8172 92.641ZM61.9341 92.641L102.424 3.35925H105.437L64.9473 92.641H61.9341ZM51.8577 92.641L92.3479 3.35925H98.7204L58.2302 92.641H51.8577ZM48.1524 92.641H45.1392L85.6294 3.35925H88.6426L48.1524 92.641ZM35.0628 92.641L75.553 3.35925H81.9255L41.4353 92.641H35.0628ZM28.3444 92.641L68.8345 3.35925H71.8491L31.3576 92.641H28.3444ZM587 0H0V3.35925H65.1306L24.6404 92.641H0L0 96H537.681H587V92.641H538.92L579.411 3.35925H587V0Z" fill="white"/>
</svg>
