<svg width="121" height="32" viewBox="0 0 121 32" fill="none" xmlns="http://www.w3.org/2000/svg">
<g clip-path="url(#paint0_angular_67_254_clip_path)" data-figma-skip-parse="true"><g transform="matrix(-0.0123444 -0.0357624 0.055322 -0.0190959 31.7687 26.4134)"><foreignObject x="-933.933" y="-933.933" width="1867.87" height="1867.87"><div xmlns="http://www.w3.org/1999/xhtml" style="background:conic-gradient(from 90deg,rgba(252, 76, 0, 1) 0deg,rgba(163, 27, 0, 1) 245.769deg,rgba(252, 76, 0, 1) 360deg);height:100%;width:100%;opacity:1"></div></foreignObject></g></g><path d="M41.4808 0C42.4783 0 43.387 0.573557 43.8161 1.47409C44.1989 2.27751 44.1391 3.21341 43.6755 3.9561L39.9249 8.61184L37.028 12.1836C35.5717 13.9792 33.3831 15.022 31.0711 15.022H24.1933L28.9522 21.3597C29.1517 21.6253 29.1455 21.9925 28.9371 22.2512L26.5284 25.2412C26.2313 25.6099 25.6666 25.6003 25.3822 25.2217L16.9472 13.9885C16.3587 13.2047 16.2636 12.1557 16.7017 11.2789C17.1397 10.4022 18.0357 9.84828 19.0158 9.84828H31.0711C31.8235 9.84828 32.5358 9.50891 33.0098 8.92456L36.0519 5.17375H7.70266L24.077 27.4221C24.2724 27.6876 24.2644 28.0514 24.0576 28.3081L21.6741 31.2669C21.3755 31.6375 20.8071 31.6255 20.5244 31.2426L0.503477 4.12026C-0.0748138 3.33451 -0.161903 2.29021 0.278331 1.41957C0.718583 0.548927 1.61125 4.54595e-07 2.58688 0H41.4808Z" data-figma-gradient-fill="{&#34;type&#34;:&#34;GRADIENT_ANGULAR&#34;,&#34;stops&#34;:[{&#34;color&#34;:{&#34;r&#34;:0.98823529481887817,&#34;g&#34;:0.29803922772407532,&#34;b&#34;:0.0,&#34;a&#34;:1.0},&#34;position&#34;:0.0},{&#34;color&#34;:{&#34;r&#34;:0.64167666435241699,&#34;g&#34;:0.10898468643426895,&#34;b&#34;:0.0024462959263473749,&#34;a&#34;:1.0},&#34;position&#34;:0.68269228935241699}],&#34;stopsVar&#34;:[{&#34;color&#34;:{&#34;r&#34;:0.98823529481887817,&#34;g&#34;:0.29803922772407532,&#34;b&#34;:0.0,&#34;a&#34;:1.0},&#34;position&#34;:0.0},{&#34;color&#34;:{&#34;r&#34;:0.64167666435241699,&#34;g&#34;:0.10898468643426895,&#34;b&#34;:0.0024462959263473749,&#34;a&#34;:1.0},&#34;position&#34;:0.68269228935241699}],&#34;transform&#34;:{&#34;m00&#34;:-24.688789367675781,&#34;m01&#34;:110.64403533935547,&#34;m02&#34;:-11.208971023559570,&#34;m10&#34;:-71.524879455566406,&#34;m11&#34;:-38.191875457763672,&#34;m12&#34;:81.271751403808594},&#34;opacity&#34;:1.0,&#34;blendMode&#34;:&#34;NORMAL&#34;,&#34;visible&#34;:true}"/>
<path d="M83.8729 8C84.6119 8 85.2787 8.0579 85.8728 8.17382C86.4668 8.28974 86.9378 8.42033 87.2855 8.56523V11.8907H87.0464C86.6986 11.7023 86.2711 11.5501 85.764 11.4342C85.2568 11.3183 84.7062 11.2604 84.1121 11.2604C82.9673 11.2604 82.0252 11.456 81.2862 11.8472C80.5617 12.2385 80.0255 12.7965 79.6777 13.521C79.33 14.2455 79.1563 15.1005 79.1563 16.0858C79.1563 17.0712 79.33 17.9261 79.6777 18.6506C80.0255 19.3752 80.5617 19.9332 81.2862 20.3244C82.0252 20.7157 82.9673 20.9113 84.1121 20.9113C84.7062 20.9112 85.2568 20.8534 85.764 20.7374C86.2711 20.6215 86.6986 20.4694 87.0464 20.281H87.2855V23.6067C86.9378 23.7516 86.4668 23.8819 85.8728 23.9978C85.2787 24.1138 84.6119 24.1717 83.8729 24.1717C81.9602 24.1717 80.359 23.8458 79.0694 23.1937C77.7942 22.5417 76.8303 21.6141 76.1782 20.4114C75.5406 19.1941 75.2218 17.7522 75.2218 16.0858C75.2218 14.4484 75.5406 13.0283 76.1782 11.8256C76.8303 10.6084 77.7942 9.66637 79.0694 8.99979C80.359 8.33326 81.9602 8 83.8729 8ZM97.0391 8C98.72 8.00002 100.155 8.34062 101.343 9.02167C102.545 9.70274 103.458 10.6519 104.081 11.8691C104.704 13.0863 105.016 14.4919 105.016 16.0858C105.016 17.6798 104.704 19.0853 104.081 20.3026C103.458 21.5198 102.545 22.4692 101.343 23.1503C100.155 23.8313 98.72 24.1716 97.0391 24.1717C95.3437 24.1717 93.9018 23.8384 92.7136 23.1719C91.5253 22.4908 90.6196 21.5417 89.9965 20.3244C89.3734 19.1072 89.0618 17.6943 89.0618 16.0858C89.0618 14.4919 89.3734 13.0863 89.9965 11.8691C90.6196 10.6519 91.5253 9.70274 92.7136 9.02167C93.9018 8.34062 95.3437 8 97.0391 8ZM58.3904 8.26074C59.8105 8.26074 60.9845 8.48554 61.9119 8.93476C62.8537 9.36948 63.5566 9.99252 64.0203 10.804C64.4984 11.6154 64.7374 12.572 64.7374 13.6733C64.7374 14.6876 64.5489 15.6004 64.1722 16.4119C63.7954 17.2089 63.2811 17.8901 62.6291 18.4552C62.3417 18.7099 62.0348 18.9376 61.7092 19.1393L65.2157 23.6936V23.9109H60.9552L58.3704 20.1771C58.1973 20.1882 58.0229 20.1941 57.8471 20.1941H55.8691V23.9109H52V8.26074H58.3904ZM71.8195 23.9109H67.7742V13.642H71.8195V23.9109ZM117.153 14.8107V8.26074H121V23.9109H117.153V19.8759L111.458 14.1197V23.9109H107.589V8.26074H110.675L117.153 14.8107ZM97.0391 11.2604C96.1407 11.2604 95.3871 11.4634 94.7785 11.8691C94.1844 12.2748 93.7351 12.8471 93.4308 13.5861C93.1409 14.3106 92.9959 15.1439 92.9959 16.0858C92.9959 17.0277 93.141 17.8682 93.4308 18.6072C93.7351 19.3317 94.1844 19.8968 94.7785 20.3026C95.3871 20.7083 96.1407 20.9113 97.0391 20.9113C97.9375 20.9112 98.6838 20.7083 99.2778 20.3026C99.8719 19.8968 100.314 19.3317 100.604 18.6072C100.908 17.8682 101.06 17.0277 101.06 16.0858C101.06 15.1439 100.908 14.3106 100.604 13.5861C100.314 12.8471 99.8719 12.2748 99.2778 11.8691C98.6838 11.4634 97.9375 11.2604 97.0391 11.2604ZM55.8691 17.064H57.7602C58.4847 17.064 59.0717 16.9119 59.5209 16.6076C59.9846 16.2888 60.3249 15.8829 60.5423 15.3902C60.7596 14.8976 60.8683 14.3687 60.8683 13.8036C60.8683 13.0066 60.6364 12.4197 60.1727 12.0429C59.7236 11.6662 59.1223 11.4777 58.3689 11.4777H55.8691V17.064ZM71.8195 12.0861H67.7742V8.3519H71.8195V12.0861Z" fill="white"/>
<defs>
<clipPath id="paint0_angular_67_254_clip_path"><path d="M41.4808 0C42.4783 0 43.387 0.573557 43.8161 1.47409C44.1989 2.27751 44.1391 3.21341 43.6755 3.9561L39.9249 8.61184L37.028 12.1836C35.5717 13.9792 33.3831 15.022 31.0711 15.022H24.1933L28.9522 21.3597C29.1517 21.6253 29.1455 21.9925 28.9371 22.2512L26.5284 25.2412C26.2313 25.6099 25.6666 25.6003 25.3822 25.2217L16.9472 13.9885C16.3587 13.2047 16.2636 12.1557 16.7017 11.2789C17.1397 10.4022 18.0357 9.84828 19.0158 9.84828H31.0711C31.8235 9.84828 32.5358 9.50891 33.0098 8.92456L36.0519 5.17375H7.70266L24.077 27.4221C24.2724 27.6876 24.2644 28.0514 24.0576 28.3081L21.6741 31.2669C21.3755 31.6375 20.8071 31.6255 20.5244 31.2426L0.503477 4.12026C-0.0748138 3.33451 -0.161903 2.29021 0.278331 1.41957C0.718583 0.548927 1.61125 4.54595e-07 2.58688 0H41.4808Z"/></clipPath></defs>
</svg>
